<svg xmlns="http://www.w3.org/2000/svg" viewBox="0 0 512 512" width="512" height="512">
  <defs>
    <radialGradient id="bg" cx="50%" cy="38%" r="78%">
      <stop offset="0%" stop-color="#241a52"/>
      <stop offset="55%" stop-color="#0b0d22"/>
      <stop offset="100%" stop-color="#05060f"/>
    </radialGradient>
    <linearGradient id="bucket" x1="0" y1="0" x2="0" y2="1">
      <stop offset="0%" stop-color="#7ff3ff"/>
      <stop offset="100%" stop-color="#1b6fd0"/>
    </linearGradient>
    <radialGradient id="flare" cx="50%" cy="50%" r="50%">
      <stop offset="0%" stop-color="#fff2c2" stop-opacity="1"/>
      <stop offset="45%" stop-color="#ff9a3d" stop-opacity="0.75"/>
      <stop offset="100%" stop-color="#ff3d6e" stop-opacity="0"/>
    </radialGradient>
  </defs>

  <rect width="512" height="512" rx="112" fill="url(#bg)"/>
  <circle cx="256" cy="196" r="150" fill="url(#flare)"/>

  <!-- bomb -->
  <circle cx="256" cy="196" r="80" fill="#0e1226"/>
  <circle cx="256" cy="196" r="80" fill="none" stroke="#ff8a3c" stroke-width="9" stroke-dasharray="46 30" opacity="0.95"/>
  <rect x="242" y="102" width="28" height="26" rx="8" fill="#0e1226"/>
  <path d="M256 104 C256 74, 300 74, 296 46" stroke="#ffcf4d" stroke-width="10" fill="none" stroke-linecap="round"/>
  <circle cx="296" cy="42" r="17" fill="#fff3cb"/>
  <circle cx="296" cy="42" r="30" fill="#ffcf4d" opacity="0.35"/>

  <!-- bucket -->
  <path d="M150 336 L362 336 L330 452 L182 452 Z" fill="url(#bucket)"/>
  <rect x="140" y="322" width="232" height="26" rx="13" fill="#bff6ff"/>
  <path d="M150 336 L362 336 L330 452 L182 452 Z" fill="none" stroke="#0a1424" stroke-width="6" opacity="0.35"/>
</svg>
